<svg xmlns="http://www.w3.org/2000/svg" xmlns:v="https://svgstorm.com"
viewBox = "0 0 823 320"
width="823"
height="320">
<g fill="None" fill-opacity="0.0" stroke="#7D7E80" stroke-opacity="0.00" stroke-width="0.3"><path d="
M 0.00 320.00 
L 823.00 320.00
L 823.00 0.00
L 0.00 0.00
L 0.00 320.00
M 770.00 23.00 
C 770.99 30.74 772.61 38.33 774.00 46.00
C 780.41 41.86 787.66 38.91 794.00 35.00
C 791.00 41.70 783.11 45.82 779.00 52.00
C 787.29 52.53 794.74 56.27 803.00 57.00
C 798.09 61.78 786.47 58.68 780.00 62.00
C 784.26 67.61 789.38 73.43 792.00 80.00
C 785.60 75.33 779.55 70.36 773.00 66.00
C 773.34 73.33 769.95 79.71 770.00 87.00
C 765.66 80.91 766.37 69.44 765.00 61.00
C 750.66 59.21 734.12 63.38 720.00 61.00 C 705.88 58.62 699.83 69.07 692.25 78.25 C 684.67 87.43 678.82 94.53 671.25 103.25 C 663.67 111.97 658.99 119.55 651.23 128.23 C 643.47 136.91 630.27 119.69 620.00 121.00
C 626.77 127.87 631.57 136.28 638.00 143.00
C 636.68 146.25 632.71 148.20 633.00 152.00
C 623.90 153.49 614.59 154.38 605.00 154.00
C 605.00 157.33 605.00 160.67 605.00 164.00
C 602.00 164.00 599.00 164.00 596.00 164.00
C 596.00 160.67 596.00 157.33 596.00 154.00
C 587.33 154.00 578.67 154.00 570.00 154.00
C 568.97 157.31 568.26 160.74 567.00 164.00
C 563.33 164.00 559.67 164.00 556.00 164.00
C 554.69 158.92 560.48 156.20 559.00 151.00
C 552.56 151.70 546.96 149.28 541.00 148.00
C 539.42 151.73 536.87 155.04 536.00 159.00
C 532.00 159.00 528.00 159.00 524.00 159.00
C 526.36 149.58 531.89 141.07 538.75 133.75 C 545.61 126.43 552.39 120.72 561.70 116.70 C 571.00 112.67 583.08 107.50 594.07 108.07 C 605.07 108.64 619.01 106.91 629.22 112.78 C 639.43 118.65 644.94 112.31 651.25 103.25 C 657.55 94.19 664.05 90.33 670.75 81.75 C 677.45 73.17 683.64 70.81 690.25 61.25 C 696.85 51.69 706.29 48.23 719.00 50.00 C 731.71 51.77 746.39 48.52 759.00 51.00
C 755.74 44.22 749.72 38.69 746.00 32.00
C 753.43 34.66 758.85 41.89 766.00 45.00
C 765.93 37.40 767.45 29.55 770.00 23.00
M 762.00 64.00 
C 750.15 104.13 738.41 144.44 728.00 185.00
C 715.57 184.09 704.04 186.90 693.00 191.00
C 692.80 182.63 693.27 174.39 693.00 166.00 C 692.73 157.61 682.46 157.03 676.00 158.00 C 669.54 158.97 658.95 154.93 655.25 162.25 C 651.55 169.57 655.43 179.08 654.00 187.00
C 623.33 187.00 592.67 187.00 562.00 187.00
C 562.00 182.33 562.00 177.67 562.00 173.00
C 578.76 175.54 596.32 169.61 613.00 173.00 C 629.68 176.39 636.36 163.38 644.25 152.25 C 652.14 141.12 657.60 132.79 665.75 122.75 C 673.90 112.72 679.81 102.88 688.75 93.75 C 697.69 84.62 701.18 71.07 715.02 69.02 C 728.86 66.98 747.59 65.49 762.00 64.00
M 182.00 283.00 
C 173.00 283.00 164.00 283.00 155.00 283.00
C 147.68 275.17 151.59 256.97 138.00 257.00 C 124.41 257.03 107.86 256.98 94.00 257.00
C 91.26 265.85 86.65 274.09 84.00 283.00
C 74.67 283.00 65.33 283.00 56.00 283.00
C 57.84 274.88 62.46 267.40 65.77 259.77 C 69.08 252.15 71.86 243.79 75.32 236.32 C 78.78 228.85 81.99 220.64 85.31 213.31 C 88.62 205.97 91.19 196.65 94.92 189.92 C 98.66 183.20 100.56 172.25 104.77 166.77 C 108.99 161.29 127.79 161.45 132.30 166.70 C 136.81 171.94 138.68 183.00 142.31 189.69 C 145.93 196.39 148.44 205.82 151.93 213.07 C 155.41 220.33 158.56 228.55 161.92 236.08 C 165.29 243.60 168.48 251.56 171.78 259.22 C 175.08 266.88 179.23 275.00 182.00 283.00
M 479.00 164.00 
C 479.00 180.00 479.00 196.00 479.00 212.00
C 494.33 212.00 509.67 212.00 525.00 212.00
C 525.00 196.00 525.00 180.00 525.00 164.00
C 533.67 164.00 542.33 164.00 551.00 164.00
C 551.00 203.67 551.00 243.33 551.00 283.00
C 542.33 283.00 533.67 283.00 525.00 283.00
C 525.00 267.33 525.00 251.67 525.00 236.00
C 509.67 236.00 494.33 236.00 479.00 236.00
C 479.00 251.67 479.00 267.33 479.00 283.00
C 470.33 283.00 461.67 283.00 453.00 283.00
C 453.00 243.33 453.00 203.67 453.00 164.00
C 461.67 164.00 470.33 164.00 479.00 164.00
M 686.00 165.00 
C 686.67 178.17 684.67 192.66 687.00 205.00
C 699.45 184.19 732.67 185.56 746.75 204.25 C 760.83 222.93 761.98 252.98 747.75 271.75 C 733.51 290.51 699.84 291.76 687.00 272.00
C 684.84 274.76 686.55 279.49 686.00 283.00
C 677.33 283.00 668.67 283.00 660.00 283.00
C 660.00 243.67 660.00 204.33 660.00 165.00
C 668.67 165.00 677.33 165.00 686.00 165.00
M 271.00 246.00 
C 249.33 246.00 227.67 246.00 206.00 246.00
C 207.57 266.80 237.83 269.58 249.00 255.00
C 254.94 259.29 262.51 263.65 266.00 270.00
C 244.93 292.03 205.07 291.39 188.08 264.92 C 171.08 238.46 182.32 200.81 214.02 192.02 C 245.73 183.24 276.44 212.90 271.00 246.00
M 306.00 190.00 
C 307.85 195.20 307.30 201.76 306.00 207.00
C 311.60 195.75 323.87 188.36 337.00 190.00
C 337.01 198.43 336.98 205.42 337.00 214.00 C 337.02 222.58 324.57 217.27 318.93 220.93 C 313.28 224.59 310.60 227.83 308.68 234.68 C 306.75 241.53 306.83 250.20 307.00 258.00 C 307.17 265.80 306.87 275.07 307.00 283.00
C 298.00 283.00 289.00 283.00 280.00 283.00
C 280.00 252.33 280.00 221.67 280.00 191.00
C 288.59 190.38 297.85 192.27 306.00 190.00
M 401.00 191.00 
C 435.65 197.21 451.32 247.84 426.23 271.23 C 401.14 294.62 355.57 291.83 342.03 255.98 C 328.48 220.12 361.00 183.83 401.00 191.00
M 591.00 230.00 
C 591.00 242.29 588.13 260.00 604.00 261.00 C 619.87 262.00 624.53 250.29 623.00 236.00 C 621.47 221.71 624.15 206.38 623.00 192.00
C 631.67 192.00 640.33 192.00 649.00 192.00
C 649.00 222.33 649.00 252.67 649.00 283.00
C 640.33 283.00 631.67 283.00 623.00 283.00
C 623.00 279.00 623.00 275.00 623.00 271.00
C 613.21 289.79 578.56 293.35 568.70 271.30 C 558.83 249.25 566.41 216.59 564.00 192.00
C 573.00 192.00 582.00 192.00 591.00 192.00
C 594.94 194.76 590.68 206.19 592.00 211.00 C 593.32 215.81 591.42 225.64 591.00 230.00 Z"/>
</g>
<g fill="None" fill-opacity="0.0" stroke="#ED6300" stroke-opacity="1.00" stroke-width="0.3"><path d="
M 770.00 23.00 
C 767.45 29.55 765.93 37.40 766.00 45.00
C 758.85 41.89 753.43 34.66 746.00 32.00
C 749.72 38.69 755.74 44.22 759.00 51.00
C 746.39 48.52 731.71 51.77 719.00 50.00 C 706.29 48.23 696.85 51.69 690.25 61.25 C 683.64 70.81 677.45 73.17 670.75 81.75 C 664.05 90.33 657.55 94.19 651.25 103.25 C 644.94 112.31 639.43 118.65 629.22 112.78 C 619.01 106.91 605.07 108.64 594.07 108.07 C 583.08 107.50 571.00 112.67 561.70 116.70 C 552.39 120.72 545.61 126.43 538.75 133.75 C 531.89 141.07 526.36 149.58 524.00 159.00
C 528.00 159.00 532.00 159.00 536.00 159.00
C 536.87 155.04 539.42 151.73 541.00 148.00
C 546.96 149.28 552.56 151.70 559.00 151.00
C 560.48 156.20 554.69 158.92 556.00 164.00
C 559.67 164.00 563.33 164.00 567.00 164.00
C 568.26 160.74 568.97 157.31 570.00 154.00
C 578.67 154.00 587.33 154.00 596.00 154.00
C 596.00 157.33 596.00 160.67 596.00 164.00
C 599.00 164.00 602.00 164.00 605.00 164.00
C 605.00 160.67 605.00 157.33 605.00 154.00
C 614.59 154.38 623.90 153.49 633.00 152.00
C 632.71 148.20 636.68 146.25 638.00 143.00
C 631.57 136.28 626.77 127.87 620.00 121.00
C 630.27 119.69 643.47 136.91 651.23 128.23 C 658.99 119.55 663.67 111.97 671.25 103.25 C 678.82 94.53 684.67 87.43 692.25 78.25 C 699.83 69.07 705.88 58.62 720.00 61.00 C 734.12 63.38 750.66 59.21 765.00 61.00
C 766.37 69.44 765.66 80.91 770.00 87.00
C 769.95 79.71 773.34 73.33 773.00 66.00
C 779.55 70.36 785.60 75.33 792.00 80.00
C 789.38 73.43 784.26 67.61 780.00 62.00
C 786.47 58.68 798.09 61.78 803.00 57.00
C 794.74 56.27 787.29 52.53 779.00 52.00
C 783.11 45.82 791.00 41.70 794.00 35.00
C 787.66 38.91 780.41 41.86 774.00 46.00
C 772.61 38.33 770.99 30.74 770.00 23.00
M 593.00 120.00 
C 592.74 128.47 594.75 136.39 594.00 145.00
C 587.39 145.76 581.53 143.63 575.00 144.00
C 579.59 135.36 584.49 125.09 593.00 120.00
M 624.00 143.00 
C 617.02 142.39 611.19 146.33 604.00 145.00
C 604.69 136.40 602.99 128.44 603.00 120.00
C 611.21 126.38 619.40 133.88 624.00 143.00
M 575.00 123.00 
C 571.48 129.25 566.99 135.06 565.00 142.00
C 559.33 142.32 554.52 139.41 549.00 139.00
C 555.85 131.24 564.87 124.83 575.00 123.00 Z"/>
</g>
<g fill="None" fill-opacity="0.0" stroke="#ED6300" stroke-opacity="1.00" stroke-width="0.3"><path d="
M 762.00 64.00 
C 747.59 65.49 728.86 66.98 715.02 69.02 C 701.18 71.07 697.69 84.62 688.75 93.75 C 679.81 102.88 673.90 112.72 665.75 122.75 C 657.60 132.79 652.14 141.12 644.25 152.25 C 636.36 163.38 629.68 176.39 613.00 173.00 C 596.32 169.61 578.76 175.54 562.00 173.00
C 562.00 177.67 562.00 182.33 562.00 187.00
C 592.67 187.00 623.33 187.00 654.00 187.00
C 655.43 179.08 651.55 169.57 655.25 162.25 C 658.95 154.93 669.54 158.97 676.00 158.00 C 682.46 157.03 692.73 157.61 693.00 166.00 C 693.27 174.39 692.80 182.63 693.00 191.00
C 704.04 186.90 715.57 184.09 728.00 185.00
C 738.41 144.44 750.15 104.13 762.00 64.00 Z"/>
</g>
<g fill="None" fill-opacity="0.0" stroke="#7D7E80" stroke-opacity="0.00" stroke-width="0.3"><path d="
M 593.00 120.00 
C 584.49 125.09 579.59 135.36 575.00 144.00
C 581.53 143.63 587.39 145.76 594.00 145.00
C 594.75 136.39 592.74 128.47 593.00 120.00 Z"/>
</g>
<g fill="None" fill-opacity="0.0" stroke="#7D7E80" stroke-opacity="0.00" stroke-width="0.3"><path d="
M 624.00 143.00 
C 619.40 133.88 611.21 126.38 603.00 120.00
C 602.99 128.44 604.69 136.40 604.00 145.00
C 611.19 146.33 617.02 142.39 624.00 143.00 Z"/>
</g>
<g fill="None" fill-opacity="0.0" stroke="#7D7E80" stroke-opacity="0.00" stroke-width="0.3"><path d="
M 575.00 123.00 
C 564.87 124.83 555.85 131.24 549.00 139.00
C 554.52 139.41 559.33 142.32 565.00 142.00
C 566.99 135.06 571.48 129.25 575.00 123.00 Z"/>
</g>
<g fill="None" fill-opacity="0.0" stroke="#ED6300" stroke-opacity="1.00" stroke-width="0.3"><path d="
M 182.00 283.00 
C 179.23 275.00 175.08 266.88 171.78 259.22 C 168.48 251.56 165.29 243.60 161.92 236.08 C 158.56 228.55 155.41 220.33 151.93 213.07 C 148.44 205.82 145.93 196.39 142.31 189.69 C 138.68 183.00 136.81 171.94 132.30 166.70 C 127.79 161.45 108.99 161.29 104.77 166.77 C 100.56 172.25 98.66 183.20 94.92 189.92 C 91.19 196.65 88.62 205.97 85.31 213.31 C 81.99 220.64 78.78 228.85 75.32 236.32 C 71.86 243.79 69.08 252.15 65.77 259.77 C 62.46 267.40 57.84 274.88 56.00 283.00
C 65.33 283.00 74.67 283.00 84.00 283.00
C 86.65 274.09 91.26 265.85 94.00 257.00
C 107.86 256.98 124.41 257.03 138.00 257.00 C 151.59 256.97 147.68 275.17 155.00 283.00
C 164.00 283.00 173.00 283.00 182.00 283.00
M 120.00 196.00 
C 123.99 209.00 130.55 221.14 135.00 234.00
C 124.67 234.00 114.33 234.00 104.00 234.00
C 108.73 221.47 112.64 206.28 120.00 196.00 Z"/>
</g>
<g fill="None" fill-opacity="0.0" stroke="#7D7E80" stroke-opacity="1.00" stroke-width="0.3"><path d="
M 479.00 164.00 
C 470.33 164.00 461.67 164.00 453.00 164.00
C 453.00 203.67 453.00 243.33 453.00 283.00
C 461.67 283.00 470.33 283.00 479.00 283.00
C 479.00 267.33 479.00 251.67 479.00 236.00
C 494.33 236.00 509.67 236.00 525.00 236.00
C 525.00 251.67 525.00 267.33 525.00 283.00
C 533.67 283.00 542.33 283.00 551.00 283.00
C 551.00 243.33 551.00 203.67 551.00 164.00
C 542.33 164.00 533.67 164.00 525.00 164.00
C 525.00 180.00 525.00 196.00 525.00 212.00
C 509.67 212.00 494.33 212.00 479.00 212.00
C 479.00 196.00 479.00 180.00 479.00 164.00 Z"/>
</g>
<g fill="None" fill-opacity="0.0" stroke="#7D7E80" stroke-opacity="1.00" stroke-width="0.3"><path d="
M 686.00 165.00 
C 677.33 165.00 668.67 165.00 660.00 165.00
C 660.00 204.33 660.00 243.67 660.00 283.00
C 668.67 283.00 677.33 283.00 686.00 283.00
C 686.55 279.49 684.84 274.76 687.00 272.00
C 699.84 291.76 733.51 290.51 747.75 271.75 C 761.98 252.98 760.83 222.93 746.75 204.25 C 732.67 185.56 699.45 184.19 687.00 205.00
C 684.67 192.66 686.67 178.17 686.00 165.00
M 714.00 213.00 
C 743.71 217.82 731.90 272.42 702.33 263.67 C 672.76 254.92 682.77 207.93 714.00 213.00 Z"/>
</g>
<g fill="None" fill-opacity="0.0" stroke="#ED6300" stroke-opacity="1.00" stroke-width="0.3"><path d="
M 271.00 246.00 
C 276.44 212.90 245.73 183.24 214.02 192.02 C 182.32 200.81 171.08 238.46 188.08 264.92 C 205.07 291.39 244.93 292.03 266.00 270.00
C 262.51 263.65 254.94 259.29 249.00 255.00
C 237.83 269.58 207.57 266.80 206.00 246.00
C 227.67 246.00 249.33 246.00 271.00 246.00
M 245.00 229.00 
C 232.00 229.00 219.00 229.00 206.00 229.00
C 209.02 206.40 242.81 205.95 245.00 229.00 Z"/>
</g>
<g fill="None" fill-opacity="0.0" stroke="#ED6300" stroke-opacity="1.00" stroke-width="0.3"><path d="
M 306.00 190.00 
C 297.85 192.27 288.59 190.38 280.00 191.00
C 280.00 221.67 280.00 252.33 280.00 283.00
C 289.00 283.00 298.00 283.00 307.00 283.00
C 306.87 275.07 307.17 265.80 307.00 258.00 C 306.83 250.20 306.75 241.53 308.68 234.68 C 310.60 227.83 313.28 224.59 318.93 220.93 C 324.57 217.27 337.02 222.58 337.00 214.00 C 336.98 205.42 337.01 198.43 337.00 190.00
C 323.87 188.36 311.60 195.75 306.00 207.00
C 307.30 201.76 307.85 195.20 306.00 190.00 Z"/>
</g>
<g fill="None" fill-opacity="0.0" stroke="#ED6300" stroke-opacity="1.00" stroke-width="0.3"><path d="
M 401.00 191.00 
C 361.00 183.83 328.48 220.12 342.03 255.98 C 355.57 291.83 401.14 294.62 426.23 271.23 C 451.32 247.84 435.65 197.21 401.00 191.00
M 395.00 214.00 
C 424.58 220.13 412.12 272.02 382.33 262.67 C 352.54 253.32 364.25 207.63 395.00 214.00 Z"/>
</g>
<g fill="None" fill-opacity="0.0" stroke="#7D7E80" stroke-opacity="1.00" stroke-width="0.3"><path d="
M 591.00 230.00 
C 591.00 217.33 591.00 204.67 591.00 192.00
C 582.00 192.00 573.00 192.00 564.00 192.00
C 566.41 216.59 558.83 249.25 568.70 271.30 C 578.56 293.35 613.21 289.79 623.00 271.00
C 623.00 275.00 623.00 279.00 623.00 283.00
C 631.67 283.00 640.33 283.00 649.00 283.00
C 649.00 252.67 649.00 222.33 649.00 192.00
C 640.33 192.00 631.67 192.00 623.00 192.00
C 624.15 206.38 621.47 221.71 623.00 236.00 C 624.53 250.29 619.87 262.00 604.00 261.00 C 588.13 260.00 591.00 242.29 591.00 230.00 Z"/>
</g>
<g fill="None" fill-opacity="0.0" stroke="#ED6300" stroke-opacity="0.09" stroke-width="0.3"><path d="
M 591.00 230.00 
C 591.42 225.64 593.32 215.81 592.00 211.00 C 590.68 206.19 594.94 194.76 591.00 192.00
C 591.00 204.67 591.00 217.33 591.00 230.00 Z"/>
</g>
<g fill="None" fill-opacity="0.0" stroke="#7D7E80" stroke-opacity="0.00" stroke-width="0.3"><path d="
M 120.00 196.00 
C 112.64 206.28 108.73 221.47 104.00 234.00
C 114.33 234.00 124.67 234.00 135.00 234.00
C 130.55 221.14 123.99 209.00 120.00 196.00 Z"/>
</g>
<g fill="None" fill-opacity="0.0" stroke="#7D7E80" stroke-opacity="0.00" stroke-width="0.3"><path d="
M 245.00 229.00 
C 242.81 205.95 209.02 206.40 206.00 229.00
C 219.00 229.00 232.00 229.00 245.00 229.00 Z"/>
</g>
<g fill="None" fill-opacity="0.0" stroke="#7D7E80" stroke-opacity="0.00" stroke-width="0.3"><path d="
M 714.00 213.00 
C 682.77 207.93 672.76 254.92 702.33 263.67 C 731.90 272.42 743.71 217.82 714.00 213.00 Z"/>
</g>
<g fill="None" fill-opacity="0.0" stroke="#7D7E80" stroke-opacity="0.00" stroke-width="0.3"><path d="
M 395.00 214.00 
C 364.25 207.63 352.54 253.32 382.33 262.67 C 412.12 272.02 424.58 220.13 395.00 214.00 Z"/>
</g>
<g fill="#7D7E80" fill-opacity="0.00" stroke="None">
<path d="
M 0.00 320.00 
L 823.00 320.00
L 823.00 0.00
L 0.00 0.00
L 0.00 320.00
M 770.00 23.00 
C 770.99 30.74 772.61 38.33 774.00 46.00
C 780.41 41.86 787.66 38.91 794.00 35.00
C 791.00 41.70 783.11 45.82 779.00 52.00
C 787.29 52.53 794.74 56.27 803.00 57.00
C 798.09 61.78 786.47 58.68 780.00 62.00
C 784.26 67.61 789.38 73.43 792.00 80.00
C 785.60 75.33 779.55 70.36 773.00 66.00
C 773.34 73.33 769.95 79.71 770.00 87.00
C 765.66 80.91 766.37 69.44 765.00 61.00
C 750.66 59.21 734.12 63.38 720.00 61.00 C 705.88 58.62 699.83 69.07 692.25 78.25 C 684.67 87.43 678.82 94.53 671.25 103.25 C 663.67 111.97 658.99 119.55 651.23 128.23 C 643.47 136.91 630.27 119.69 620.00 121.00
C 626.77 127.87 631.57 136.28 638.00 143.00
C 636.68 146.25 632.71 148.20 633.00 152.00
C 623.90 153.49 614.59 154.38 605.00 154.00
C 605.00 157.33 605.00 160.67 605.00 164.00
C 602.00 164.00 599.00 164.00 596.00 164.00
C 596.00 160.67 596.00 157.33 596.00 154.00
C 587.33 154.00 578.67 154.00 570.00 154.00
C 568.97 157.31 568.26 160.74 567.00 164.00
C 563.33 164.00 559.67 164.00 556.00 164.00
C 554.69 158.92 560.48 156.20 559.00 151.00
C 552.56 151.70 546.96 149.28 541.00 148.00
C 539.42 151.73 536.87 155.04 536.00 159.00
C 532.00 159.00 528.00 159.00 524.00 159.00
C 526.36 149.58 531.89 141.07 538.75 133.75 C 545.61 126.43 552.39 120.72 561.70 116.70 C 571.00 112.67 583.08 107.50 594.07 108.07 C 605.07 108.64 619.01 106.91 629.22 112.78 C 639.43 118.65 644.94 112.31 651.25 103.25 C 657.55 94.19 664.05 90.33 670.75 81.75 C 677.45 73.17 683.64 70.81 690.25 61.25 C 696.85 51.69 706.29 48.23 719.00 50.00 C 731.71 51.77 746.39 48.52 759.00 51.00
C 755.74 44.22 749.72 38.69 746.00 32.00
C 753.43 34.66 758.85 41.89 766.00 45.00
C 765.93 37.40 767.45 29.55 770.00 23.00
M 762.00 64.00 
C 750.15 104.13 738.41 144.44 728.00 185.00
C 715.57 184.09 704.04 186.90 693.00 191.00
C 692.80 182.63 693.27 174.39 693.00 166.00 C 692.73 157.61 682.46 157.03 676.00 158.00 C 669.54 158.97 658.95 154.93 655.25 162.25 C 651.55 169.57 655.43 179.08 654.00 187.00
C 623.33 187.00 592.67 187.00 562.00 187.00
C 562.00 182.33 562.00 177.67 562.00 173.00
C 578.76 175.54 596.32 169.61 613.00 173.00 C 629.68 176.39 636.36 163.38 644.25 152.25 C 652.14 141.12 657.60 132.79 665.75 122.75 C 673.90 112.72 679.81 102.88 688.75 93.75 C 697.69 84.62 701.18 71.07 715.02 69.02 C 728.86 66.98 747.59 65.49 762.00 64.00
M 182.00 283.00 
C 173.00 283.00 164.00 283.00 155.00 283.00
C 147.68 275.17 151.59 256.97 138.00 257.00 C 124.41 257.03 107.86 256.98 94.00 257.00
C 91.26 265.85 86.65 274.09 84.00 283.00
C 74.67 283.00 65.33 283.00 56.00 283.00
C 57.84 274.88 62.46 267.40 65.77 259.77 C 69.08 252.15 71.86 243.79 75.32 236.32 C 78.78 228.85 81.99 220.64 85.31 213.31 C 88.62 205.97 91.19 196.65 94.92 189.92 C 98.66 183.20 100.56 172.25 104.77 166.77 C 108.99 161.29 127.79 161.45 132.30 166.70 C 136.81 171.94 138.68 183.00 142.31 189.69 C 145.93 196.39 148.44 205.82 151.93 213.07 C 155.41 220.33 158.56 228.55 161.92 236.08 C 165.29 243.60 168.48 251.56 171.78 259.22 C 175.08 266.88 179.23 275.00 182.00 283.00
M 479.00 164.00 
C 479.00 180.00 479.00 196.00 479.00 212.00
C 494.33 212.00 509.67 212.00 525.00 212.00
C 525.00 196.00 525.00 180.00 525.00 164.00
C 533.67 164.00 542.33 164.00 551.00 164.00
C 551.00 203.67 551.00 243.33 551.00 283.00
C 542.33 283.00 533.67 283.00 525.00 283.00
C 525.00 267.33 525.00 251.67 525.00 236.00
C 509.67 236.00 494.33 236.00 479.00 236.00
C 479.00 251.67 479.00 267.33 479.00 283.00
C 470.33 283.00 461.67 283.00 453.00 283.00
C 453.00 243.33 453.00 203.67 453.00 164.00
C 461.67 164.00 470.33 164.00 479.00 164.00
M 686.00 165.00 
C 686.67 178.17 684.67 192.66 687.00 205.00
C 699.45 184.19 732.67 185.56 746.75 204.25 C 760.83 222.93 761.98 252.98 747.75 271.75 C 733.51 290.51 699.84 291.76 687.00 272.00
C 684.84 274.76 686.55 279.49 686.00 283.00
C 677.33 283.00 668.67 283.00 660.00 283.00
C 660.00 243.67 660.00 204.33 660.00 165.00
C 668.67 165.00 677.33 165.00 686.00 165.00
M 271.00 246.00 
C 249.33 246.00 227.67 246.00 206.00 246.00
C 207.57 266.80 237.83 269.58 249.00 255.00
C 254.94 259.29 262.51 263.65 266.00 270.00
C 244.93 292.03 205.07 291.39 188.08 264.92 C 171.08 238.46 182.32 200.81 214.02 192.02 C 245.73 183.24 276.44 212.90 271.00 246.00
M 306.00 190.00 
C 307.85 195.20 307.30 201.76 306.00 207.00
C 311.60 195.75 323.87 188.36 337.00 190.00
C 337.01 198.43 336.98 205.42 337.00 214.00 C 337.02 222.58 324.57 217.27 318.93 220.93 C 313.28 224.59 310.60 227.83 308.68 234.68 C 306.75 241.53 306.83 250.20 307.00 258.00 C 307.17 265.80 306.87 275.07 307.00 283.00
C 298.00 283.00 289.00 283.00 280.00 283.00
C 280.00 252.33 280.00 221.67 280.00 191.00
C 288.59 190.38 297.85 192.27 306.00 190.00
M 401.00 191.00 
C 435.65 197.21 451.32 247.84 426.23 271.23 C 401.14 294.62 355.57 291.83 342.03 255.98 C 328.48 220.12 361.00 183.83 401.00 191.00
M 591.00 230.00 
C 591.00 242.29 588.13 260.00 604.00 261.00 C 619.87 262.00 624.53 250.29 623.00 236.00 C 621.47 221.71 624.15 206.38 623.00 192.00
C 631.67 192.00 640.33 192.00 649.00 192.00
C 649.00 222.33 649.00 252.67 649.00 283.00
C 640.33 283.00 631.67 283.00 623.00 283.00
C 623.00 279.00 623.00 275.00 623.00 271.00
C 613.21 289.79 578.56 293.35 568.70 271.30 C 558.83 249.25 566.41 216.59 564.00 192.00
C 573.00 192.00 582.00 192.00 591.00 192.00
C 594.94 194.76 590.68 206.19 592.00 211.00 C 593.32 215.81 591.42 225.64 591.00 230.00 Z"/>
</g>
<g fill="#ED6300" fill-opacity="1.00" stroke="None">
<path d="
M 770.00 23.00 
C 767.45 29.55 765.93 37.40 766.00 45.00
C 758.85 41.89 753.43 34.66 746.00 32.00
C 749.72 38.69 755.74 44.22 759.00 51.00
C 746.39 48.52 731.71 51.77 719.00 50.00 C 706.29 48.23 696.85 51.69 690.25 61.25 C 683.64 70.81 677.45 73.17 670.75 81.75 C 664.05 90.33 657.55 94.19 651.25 103.25 C 644.94 112.31 639.43 118.65 629.22 112.78 C 619.01 106.91 605.07 108.64 594.07 108.07 C 583.08 107.50 571.00 112.67 561.70 116.70 C 552.39 120.72 545.61 126.43 538.75 133.75 C 531.89 141.07 526.36 149.58 524.00 159.00
C 528.00 159.00 532.00 159.00 536.00 159.00
C 536.87 155.04 539.42 151.73 541.00 148.00
C 546.96 149.28 552.56 151.70 559.00 151.00
C 560.48 156.20 554.69 158.92 556.00 164.00
C 559.67 164.00 563.33 164.00 567.00 164.00
C 568.26 160.74 568.97 157.31 570.00 154.00
C 578.67 154.00 587.33 154.00 596.00 154.00
C 596.00 157.33 596.00 160.67 596.00 164.00
C 599.00 164.00 602.00 164.00 605.00 164.00
C 605.00 160.67 605.00 157.33 605.00 154.00
C 614.59 154.38 623.90 153.49 633.00 152.00
C 632.71 148.20 636.68 146.25 638.00 143.00
C 631.57 136.28 626.77 127.87 620.00 121.00
C 630.27 119.69 643.47 136.91 651.23 128.23 C 658.99 119.55 663.67 111.97 671.25 103.25 C 678.82 94.53 684.67 87.43 692.25 78.25 C 699.83 69.07 705.88 58.62 720.00 61.00 C 734.12 63.38 750.66 59.21 765.00 61.00
C 766.37 69.44 765.66 80.91 770.00 87.00
C 769.95 79.71 773.34 73.33 773.00 66.00
C 779.55 70.36 785.60 75.33 792.00 80.00
C 789.38 73.43 784.26 67.61 780.00 62.00
C 786.47 58.68 798.09 61.78 803.00 57.00
C 794.74 56.27 787.29 52.53 779.00 52.00
C 783.11 45.82 791.00 41.70 794.00 35.00
C 787.66 38.91 780.41 41.86 774.00 46.00
C 772.61 38.33 770.99 30.74 770.00 23.00
M 593.00 120.00 
C 592.74 128.47 594.75 136.39 594.00 145.00
C 587.39 145.76 581.53 143.63 575.00 144.00
C 579.59 135.36 584.49 125.09 593.00 120.00
M 624.00 143.00 
C 617.02 142.39 611.19 146.33 604.00 145.00
C 604.69 136.40 602.99 128.44 603.00 120.00
C 611.21 126.38 619.40 133.88 624.00 143.00
M 575.00 123.00 
C 571.48 129.25 566.99 135.06 565.00 142.00
C 559.33 142.32 554.52 139.41 549.00 139.00
C 555.85 131.24 564.87 124.83 575.00 123.00 Z"/>
</g>
<g fill="#ED6300" fill-opacity="1.00" stroke="None">
<path d="
M 762.00 64.00 
C 747.59 65.49 728.86 66.98 715.02 69.02 C 701.18 71.07 697.69 84.62 688.75 93.75 C 679.81 102.88 673.90 112.72 665.75 122.75 C 657.60 132.79 652.14 141.12 644.25 152.25 C 636.36 163.38 629.68 176.39 613.00 173.00 C 596.32 169.61 578.76 175.54 562.00 173.00
C 562.00 177.67 562.00 182.33 562.00 187.00
C 592.67 187.00 623.33 187.00 654.00 187.00
C 655.43 179.08 651.55 169.57 655.25 162.25 C 658.95 154.93 669.54 158.97 676.00 158.00 C 682.46 157.03 692.73 157.61 693.00 166.00 C 693.27 174.39 692.80 182.63 693.00 191.00
C 704.04 186.90 715.57 184.09 728.00 185.00
C 738.41 144.44 750.15 104.13 762.00 64.00 Z"/>
</g>
<g fill="#7D7E80" fill-opacity="0.00" stroke="None">
<path d="
M 593.00 120.00 
C 584.49 125.09 579.59 135.36 575.00 144.00
C 581.53 143.63 587.39 145.76 594.00 145.00
C 594.75 136.39 592.74 128.47 593.00 120.00 Z"/>
</g>
<g fill="#7D7E80" fill-opacity="0.00" stroke="None">
<path d="
M 624.00 143.00 
C 619.40 133.88 611.21 126.38 603.00 120.00
C 602.99 128.44 604.69 136.40 604.00 145.00
C 611.19 146.33 617.02 142.39 624.00 143.00 Z"/>
</g>
<g fill="#7D7E80" fill-opacity="0.00" stroke="None">
<path d="
M 575.00 123.00 
C 564.87 124.83 555.85 131.24 549.00 139.00
C 554.52 139.41 559.33 142.32 565.00 142.00
C 566.99 135.06 571.48 129.25 575.00 123.00 Z"/>
</g>
<g fill="#ED6300" fill-opacity="1.00" stroke="None">
<path d="
M 182.00 283.00 
C 179.23 275.00 175.08 266.88 171.78 259.22 C 168.48 251.56 165.29 243.60 161.92 236.08 C 158.56 228.55 155.41 220.33 151.93 213.07 C 148.44 205.82 145.93 196.39 142.31 189.69 C 138.68 183.00 136.81 171.94 132.30 166.70 C 127.79 161.45 108.99 161.29 104.77 166.77 C 100.56 172.25 98.66 183.20 94.92 189.92 C 91.19 196.65 88.62 205.97 85.31 213.31 C 81.99 220.64 78.78 228.85 75.32 236.32 C 71.86 243.79 69.08 252.15 65.77 259.77 C 62.46 267.40 57.84 274.88 56.00 283.00
C 65.33 283.00 74.67 283.00 84.00 283.00
C 86.65 274.09 91.26 265.85 94.00 257.00
C 107.86 256.98 124.41 257.03 138.00 257.00 C 151.59 256.97 147.68 275.17 155.00 283.00
C 164.00 283.00 173.00 283.00 182.00 283.00
M 120.00 196.00 
C 123.99 209.00 130.55 221.14 135.00 234.00
C 124.67 234.00 114.33 234.00 104.00 234.00
C 108.73 221.47 112.64 206.28 120.00 196.00 Z"/>
</g>
<g fill="#7D7E80" fill-opacity="1.00" stroke="None">
<path d="
M 479.00 164.00 
C 470.33 164.00 461.67 164.00 453.00 164.00
C 453.00 203.67 453.00 243.33 453.00 283.00
C 461.67 283.00 470.33 283.00 479.00 283.00
C 479.00 267.33 479.00 251.67 479.00 236.00
C 494.33 236.00 509.67 236.00 525.00 236.00
C 525.00 251.67 525.00 267.33 525.00 283.00
C 533.67 283.00 542.33 283.00 551.00 283.00
C 551.00 243.33 551.00 203.67 551.00 164.00
C 542.33 164.00 533.67 164.00 525.00 164.00
C 525.00 180.00 525.00 196.00 525.00 212.00
C 509.67 212.00 494.33 212.00 479.00 212.00
C 479.00 196.00 479.00 180.00 479.00 164.00 Z"/>
</g>
<g fill="#7D7E80" fill-opacity="1.00" stroke="None">
<path d="
M 686.00 165.00 
C 677.33 165.00 668.67 165.00 660.00 165.00
C 660.00 204.33 660.00 243.67 660.00 283.00
C 668.67 283.00 677.33 283.00 686.00 283.00
C 686.55 279.49 684.84 274.76 687.00 272.00
C 699.84 291.76 733.51 290.51 747.75 271.75 C 761.98 252.98 760.83 222.93 746.75 204.25 C 732.67 185.56 699.45 184.19 687.00 205.00
C 684.67 192.66 686.67 178.17 686.00 165.00
M 714.00 213.00 
C 743.71 217.82 731.90 272.42 702.33 263.67 C 672.76 254.92 682.77 207.93 714.00 213.00 Z"/>
</g>
<g fill="#ED6300" fill-opacity="1.00" stroke="None">
<path d="
M 271.00 246.00 
C 276.44 212.90 245.73 183.24 214.02 192.02 C 182.32 200.81 171.08 238.46 188.08 264.92 C 205.07 291.39 244.93 292.03 266.00 270.00
C 262.51 263.65 254.94 259.29 249.00 255.00
C 237.83 269.58 207.57 266.80 206.00 246.00
C 227.67 246.00 249.33 246.00 271.00 246.00
M 245.00 229.00 
C 232.00 229.00 219.00 229.00 206.00 229.00
C 209.02 206.40 242.81 205.95 245.00 229.00 Z"/>
</g>
<g fill="#ED6300" fill-opacity="1.00" stroke="None">
<path d="
M 306.00 190.00 
C 297.85 192.27 288.59 190.38 280.00 191.00
C 280.00 221.67 280.00 252.33 280.00 283.00
C 289.00 283.00 298.00 283.00 307.00 283.00
C 306.87 275.07 307.17 265.80 307.00 258.00 C 306.83 250.20 306.75 241.53 308.68 234.68 C 310.60 227.83 313.28 224.59 318.93 220.93 C 324.57 217.27 337.02 222.58 337.00 214.00 C 336.98 205.42 337.01 198.43 337.00 190.00
C 323.87 188.36 311.60 195.75 306.00 207.00
C 307.30 201.76 307.85 195.20 306.00 190.00 Z"/>
</g>
<g fill="#ED6300" fill-opacity="1.00" stroke="None">
<path d="
M 401.00 191.00 
C 361.00 183.83 328.48 220.12 342.03 255.98 C 355.57 291.83 401.14 294.62 426.23 271.23 C 451.32 247.84 435.65 197.21 401.00 191.00
M 395.00 214.00 
C 424.58 220.13 412.12 272.02 382.33 262.67 C 352.54 253.32 364.25 207.63 395.00 214.00 Z"/>
</g>
<g fill="#7D7E80" fill-opacity="1.00" stroke="None">
<path d="
M 591.00 230.00 
C 591.00 217.33 591.00 204.67 591.00 192.00
C 582.00 192.00 573.00 192.00 564.00 192.00
C 566.41 216.59 558.83 249.25 568.70 271.30 C 578.56 293.35 613.21 289.79 623.00 271.00
C 623.00 275.00 623.00 279.00 623.00 283.00
C 631.67 283.00 640.33 283.00 649.00 283.00
C 649.00 252.67 649.00 222.33 649.00 192.00
C 640.33 192.00 631.67 192.00 623.00 192.00
C 624.15 206.38 621.47 221.71 623.00 236.00 C 624.53 250.29 619.87 262.00 604.00 261.00 C 588.13 260.00 591.00 242.29 591.00 230.00 Z"/>
</g>
<g fill="#ED6300" fill-opacity="0.09" stroke="None">
<path d="
M 591.00 230.00 
C 591.42 225.64 593.32 215.81 592.00 211.00 C 590.68 206.19 594.94 194.76 591.00 192.00
C 591.00 204.67 591.00 217.33 591.00 230.00 Z"/>
</g>
<g fill="#7D7E80" fill-opacity="0.00" stroke="None">
<path d="
M 120.00 196.00 
C 112.64 206.28 108.73 221.47 104.00 234.00
C 114.33 234.00 124.67 234.00 135.00 234.00
C 130.55 221.14 123.99 209.00 120.00 196.00 Z"/>
</g>
<g fill="#7D7E80" fill-opacity="0.00" stroke="None">
<path d="
M 245.00 229.00 
C 242.81 205.95 209.02 206.40 206.00 229.00
C 219.00 229.00 232.00 229.00 245.00 229.00 Z"/>
</g>
<g fill="#7D7E80" fill-opacity="0.00" stroke="None">
<path d="
M 714.00 213.00 
C 682.77 207.93 672.76 254.92 702.33 263.67 C 731.90 272.42 743.71 217.82 714.00 213.00 Z"/>
</g>
<g fill="#7D7E80" fill-opacity="0.00" stroke="None">
<path d="
M 395.00 214.00 
C 364.25 207.63 352.54 253.32 382.33 262.67 C 412.12 272.02 424.58 220.13 395.00 214.00 Z"/>
</g>
</svg>