<svg xmlns="http://www.w3.org/2000/svg" xmlns:v="https://svgstorm.com"
viewBox = "0 0 1024 1024"
width="1024"
height="1024">
<g fill="None" fill-opacity="0.0" stroke="#000002" stroke-opacity="0.00" stroke-width="0.3"><path d="
M 0.00 1024.00 
L 1024.00 1024.00
L 1024.00 0.00
L 0.00 0.00
L 0.00 1024.00
M 917.00 224.00 
C 920.07 236.61 922.03 250.33 927.00 262.00
C 935.99 254.53 947.64 249.12 956.00 241.00
C 954.61 247.87 949.26 252.93 944.75 259.75 C 940.23 266.56 932.23 275.20 944.07 275.93 C 955.91 276.66 960.62 279.72 971.00 282.00
C 959.56 284.88 947.28 288.01 935.00 289.00
C 940.25 300.69 951.59 312.07 959.00 323.00
C 946.92 319.44 937.98 309.22 926.00 303.00
C 923.32 315.57 922.16 329.19 918.00 341.00
C 915.77 328.98 912.96 314.85 909.00 303.00
C 905.83 313.08 903.06 322.91 900.07 333.07 C 897.09 343.24 894.69 353.40 891.68 363.68 C 888.67 373.95 885.52 384.48 883.01 395.01 C 880.50 405.54 876.26 414.24 874.07 425.07 C 871.89 435.90 867.25 444.10 865.67 455.67 C 864.09 467.24 851.54 469.13 841.00 471.00
C 835.99 480.46 832.97 487.13 826.08 496.08 C 819.19 505.04 802.00 500.12 790.00 501.00 C 778.00 501.88 762.76 500.55 750.00 501.00 C 737.24 501.45 721.99 500.66 709.00 501.00
C 713.32 503.74 706.10 502.88 704.00 503.00
C 713.10 498.98 694.34 502.73 691.00 500.00
C 693.07 493.89 688.68 485.19 691.00 481.00
C 687.43 482.13 688.45 485.93 684.00 484.00
C 688.37 481.71 678.55 482.44 673.78 481.22 C 669.01 480.00 662.90 482.93 657.92 481.93 C 652.94 480.94 645.67 481.60 640.00 481.00
C 638.48 474.64 636.40 468.43 635.00 462.00
C 648.56 461.48 666.91 462.69 680.00 462.00 C 693.09 461.31 712.34 465.99 719.75 455.75 C 727.16 445.52 732.42 438.93 739.75 429.75 C 747.08 420.57 752.69 412.61 759.75 403.75 C 766.81 394.90 772.18 385.88 779.25 377.25 C 786.32 368.63 791.99 359.45 798.92 350.92 C 805.84 342.39 811.25 332.74 818.75 324.75 C 826.25 316.76 828.37 302.77 840.02 300.02 C 851.68 297.27 866.71 294.56 879.00 293.00
C 866.88 289.61 850.39 294.00 838.00 293.00 C 825.61 292.00 821.48 304.66 814.25 312.25 C 807.02 319.84 801.80 328.14 794.75 335.75 C 787.70 343.36 782.59 352.05 775.75 359.75 C 768.90 367.44 762.50 375.20 756.23 383.23 C 749.96 391.26 742.35 398.41 737.00 407.00
C 725.56 402.25 714.62 396.04 704.00 392.00
C 713.00 402.07 720.98 413.86 730.00 424.00
C 724.91 432.68 719.94 434.50 714.70 443.70 C 709.45 452.89 699.76 451.47 689.00 451.00 C 678.24 450.53 665.31 451.24 654.00 451.00 C 642.69 450.76 629.48 451.18 618.00 451.00
C 616.62 457.97 615.68 465.08 614.00 472.00
C 607.58 468.34 598.03 469.79 591.00 471.00
C 588.45 466.64 599.53 455.21 594.22 451.78 C 588.91 448.35 576.92 452.20 570.00 451.00 C 563.08 449.80 552.28 451.90 545.00 451.00
C 548.57 442.30 553.96 433.53 559.92 425.92 C 565.88 418.30 571.28 411.05 577.77 403.77 C 584.27 396.49 592.46 391.22 600.08 385.08 C 607.71 378.95 617.20 375.34 626.22 371.22 C 635.25 367.11 647.01 366.84 658.00 365.00 C 668.99 363.16 683.98 366.11 694.22 367.78 C 704.46 369.45 713.20 374.06 723.08 376.92 C 732.95 379.79 736.43 364.99 743.25 359.25 C 750.08 353.51 755.61 343.58 761.92 336.92 C 768.22 330.25 774.21 322.33 780.25 315.25 C 786.30 308.18 792.82 301.09 798.75 293.75 C 804.69 286.42 812.08 278.85 817.00 271.00
C 843.67 271.00 870.33 271.00 897.00 271.00
C 891.93 259.94 882.26 250.93 877.00 240.00
C 888.01 246.09 898.20 254.24 909.00 261.00
C 913.06 249.34 912.19 233.92 917.00 224.00
M 913.00 232.00 
C 913.74 232.74 912.18 231.18 913.00 232.00
M 913.00 234.00 
C 913.74 234.74 912.18 233.18 913.00 234.00
M 884.00 253.00 
C 884.74 253.74 883.18 252.18 884.00 253.00
M 907.00 257.00 
C 907.74 257.74 906.18 256.18 907.00 257.00
M 818.00 269.00 
C 818.74 269.74 817.18 268.18 818.00 269.00
M 890.00 269.00 
C 890.74 269.74 889.18 268.18 890.00 269.00
M 892.00 269.00 
C 892.74 269.74 891.18 268.18 892.00 269.00
M 195.00 642.00 
C 185.23 645.48 176.38 640.67 166.00 643.00 C 155.62 645.33 150.82 638.99 149.08 629.92 C 147.33 620.86 142.78 616.06 142.00 607.00
C 120.00 607.00 98.00 607.00 76.00 607.00
C 72.66 619.21 67.35 630.76 64.00 643.00
C 51.00 643.00 38.00 643.00 25.00 643.00
C 46.09 583.09 68.48 523.49 91.00 464.00
C 101.05 466.73 125.47 457.85 129.92 470.08 C 134.38 482.30 138.16 492.50 142.77 504.23 C 147.38 515.96 151.41 527.50 155.92 539.08 C 160.44 550.65 164.33 561.74 168.78 573.22 C 173.23 584.71 177.36 595.75 181.78 607.22 C 186.20 618.70 190.40 630.58 195.00 642.00
M 581.00 465.00 
C 584.40 471.48 579.84 481.14 581.33 488.67 C 582.82 496.20 580.27 503.93 581.00 512.00 C 581.73 520.07 580.95 528.81 581.00 537.00
C 602.70 536.76 624.83 537.01 647.00 537.00
C 647.36 529.13 646.41 521.34 647.00 514.00
C 646.64 509.18 645.44 504.73 646.00 499.00 C 646.57 493.27 644.82 488.04 648.00 488.00
C 658.30 487.88 672.01 485.65 682.00 488.00
C 686.29 489.01 683.49 503.98 683.00 509.00
C 683.00 553.33 683.00 597.67 683.00 642.00
C 671.00 642.00 659.00 642.00 647.00 642.00
C 647.00 616.67 647.00 591.33 647.00 566.00
C 625.28 566.38 603.25 566.38 581.00 566.00
C 581.59 589.57 581.16 616.51 581.00 642.00
C 568.67 642.00 556.33 642.00 544.00 642.00
C 544.03 582.57 543.92 524.13 544.00 465.00
C 546.32 461.68 558.94 464.59 563.00 464.00 C 567.06 463.41 580.14 463.37 581.00 465.00
M 869.00 486.00 
C 869.00 500.33 869.00 514.67 869.00 529.00
C 891.99 506.34 932.28 510.64 951.75 536.25 C 971.23 561.86 971.08 599.86 951.25 625.25 C 931.41 650.64 890.11 653.07 868.00 630.00
C 868.00 634.00 868.00 638.00 868.00 642.00
C 856.67 642.00 845.33 642.00 834.00 642.00
C 833.89 626.71 834.33 603.08 833.61 589.25 C 832.88 575.42 834.13 566.44 834.00 548.00 C 833.87 529.56 834.10 510.50 834.00 492.00
C 845.83 490.73 857.08 487.03 869.00 486.00
M 312.00 589.00 
C 281.67 589.00 251.33 589.00 221.00 589.00
C 224.00 616.99 265.40 625.56 280.00 603.00
C 290.28 604.56 298.73 612.19 309.00 614.00
C 291.49 654.87 227.99 658.41 201.08 623.92 C 174.17 589.42 184.25 532.15 228.68 516.68 C 273.11 501.21 324.28 539.41 312.00 589.00
M 394.00 514.00 
C 393.65 525.67 394.89 537.71 393.00 549.00
C 371.27 543.90 356.77 561.55 357.00 582.00 C 357.23 602.45 355.30 622.50 356.00 643.00
C 344.42 642.36 332.14 644.30 321.00 642.00
C 322.05 603.07 322.83 558.98 321.00 517.00
C 330.79 511.61 344.82 516.22 356.00 515.00
C 354.55 520.08 355.84 526.65 355.00 532.00
C 363.26 519.25 378.36 509.82 394.00 514.00
M 469.00 513.00 
C 519.06 517.84 546.78 577.59 518.75 618.75 C 490.71 659.90 426.31 655.76 403.70 611.31 C 381.08 566.85 415.60 507.83 469.00 513.00
M 736.00 515.00 
C 735.78 541.64 736.30 571.70 736.00 598.00 C 735.70 624.30 778.31 622.28 781.78 597.78 C 785.24 573.28 781.72 540.58 783.00 515.00
C 794.33 515.00 805.67 515.00 817.00 515.00
C 817.00 557.33 817.00 599.67 817.00 642.00
C 805.67 642.00 794.33 642.00 783.00 642.00
C 783.00 638.33 783.00 634.67 783.00 631.00
C 764.35 650.54 719.44 654.76 707.08 623.92 C 694.73 593.08 705.81 548.75 702.00 515.00
C 713.33 515.00 724.67 515.00 736.00 515.00 Z"/>
</g>
<g fill="None" fill-opacity="0.0" stroke="#EE6C0D" stroke-opacity="0.97" stroke-width="0.3"><path d="
M 917.00 224.00 
C 912.19 233.92 913.06 249.34 909.00 261.00
C 898.20 254.24 888.01 246.09 877.00 240.00
C 882.26 250.93 891.93 259.94 897.00 271.00
C 870.33 271.00 843.67 271.00 817.00 271.00
C 812.08 278.85 804.69 286.42 798.75 293.75 C 792.82 301.09 786.30 308.18 780.25 315.25 C 774.21 322.33 768.22 330.25 761.92 336.92 C 755.61 343.58 750.08 353.51 743.25 359.25 C 736.43 364.99 732.95 379.79 723.08 376.92 C 713.20 374.06 704.46 369.45 694.22 367.78 C 683.98 366.11 668.99 363.16 658.00 365.00 C 647.01 366.84 635.25 367.11 626.22 371.22 C 617.20 375.34 607.71 378.95 600.08 385.08 C 592.46 391.22 584.27 396.49 577.77 403.77 C 571.28 411.05 565.88 418.30 559.92 425.92 C 553.96 433.53 548.57 442.30 545.00 451.00
C 552.28 451.90 563.08 449.80 570.00 451.00 C 576.92 452.20 588.91 448.35 594.22 451.78 C 599.53 455.21 588.45 466.64 591.00 471.00
C 598.03 469.79 607.58 468.34 614.00 472.00
C 615.68 465.08 616.62 457.97 618.00 451.00
C 629.48 451.18 642.69 450.76 654.00 451.00 C 665.31 451.24 678.24 450.53 689.00 451.00 C 699.76 451.47 709.45 452.89 714.70 443.70 C 719.94 434.50 724.91 432.68 730.00 424.00
C 720.98 413.86 713.00 402.07 704.00 392.00
C 714.62 396.04 725.56 402.25 737.00 407.00
C 742.35 398.41 749.96 391.26 756.23 383.23 C 762.50 375.20 768.90 367.44 775.75 359.75 C 782.59 352.05 787.70 343.36 794.75 335.75 C 801.80 328.14 807.02 319.84 814.25 312.25 C 821.48 304.66 825.61 292.00 838.00 293.00 C 850.39 294.00 866.88 289.61 879.00 293.00
C 866.71 294.56 851.68 297.27 840.02 300.02 C 828.37 302.77 826.25 316.76 818.75 324.75 C 811.25 332.74 805.84 342.39 798.92 350.92 C 791.99 359.45 786.32 368.63 779.25 377.25 C 772.18 385.88 766.81 394.90 759.75 403.75 C 752.69 412.61 747.08 420.57 739.75 429.75 C 732.42 438.93 727.16 445.52 719.75 455.75 C 712.34 465.99 693.09 461.31 680.00 462.00 C 666.91 462.69 648.56 461.48 635.00 462.00
C 636.40 468.43 638.48 474.64 640.00 481.00
C 645.67 481.60 652.94 480.94 657.92 481.93 C 662.90 482.93 669.01 480.00 673.78 481.22 C 678.55 482.44 688.37 481.71 684.00 484.00
C 688.45 485.93 687.43 482.13 691.00 481.00
C 688.68 485.19 693.07 493.89 691.00 500.00
C 694.34 502.73 713.10 498.98 704.00 503.00
C 706.10 502.88 713.32 503.74 709.00 501.00
C 721.99 500.66 737.24 501.45 750.00 501.00 C 762.76 500.55 778.00 501.88 790.00 501.00 C 802.00 500.12 819.19 505.04 826.08 496.08 C 832.97 487.13 835.99 480.46 841.00 471.00
C 851.54 469.13 864.09 467.24 865.67 455.67 C 867.25 444.10 871.89 435.90 874.07 425.07 C 876.26 414.24 880.50 405.54 883.01 395.01 C 885.52 384.48 888.67 373.95 891.68 363.68 C 894.69 353.40 897.09 343.24 900.07 333.07 C 903.06 322.91 905.83 313.08 909.00 303.00
C 912.96 314.85 915.77 328.98 918.00 341.00
C 922.16 329.19 923.32 315.57 926.00 303.00
C 937.98 309.22 946.92 319.44 959.00 323.00
C 951.59 312.07 940.25 300.69 935.00 289.00
C 947.28 288.01 959.56 284.88 971.00 282.00
C 960.62 279.72 955.91 276.66 944.07 275.93 C 932.23 275.20 940.23 266.56 944.75 259.75 C 949.26 252.93 954.61 247.87 956.00 241.00
C 947.64 249.12 935.99 254.53 927.00 262.00
C 922.03 250.33 920.07 236.61 917.00 224.00
M 660.00 383.00 
C 660.52 397.35 653.89 403.89 653.67 418.67 C 653.45 433.45 636.98 432.24 624.00 431.00
C 627.00 422.97 626.44 424.42 630.77 415.77 C 635.10 407.12 642.58 397.37 648.77 389.77 C 654.96 382.17 656.53 387.92 660.00 383.00
M 706.00 430.00 
C 693.49 430.40 676.71 433.53 677.00 419.00 C 677.29 404.46 670.69 398.23 672.00 384.00
C 691.36 389.94 697.72 413.79 706.00 430.00
M 625.00 393.00 
C 616.35 404.92 608.36 417.37 603.00 431.00
C 594.54 431.13 587.65 432.38 579.00 432.00
C 591.21 416.12 605.74 399.31 625.00 393.00 Z"/>
</g>
<g fill="None" fill-opacity="0.0" stroke="#EE6C0D" stroke-opacity="0.00" stroke-width="0.3"><path d="
M 913.00 232.00 
C 912.18 231.18 913.74 232.74 913.00 232.00 Z"/>
</g>
<g fill="None" fill-opacity="0.0" stroke="#EE6C0D" stroke-opacity="0.00" stroke-width="0.3"><path d="
M 913.00 234.00 
C 912.18 233.18 913.74 234.74 913.00 234.00 Z"/>
</g>
<g fill="None" fill-opacity="0.0" stroke="#EE6C0D" stroke-opacity="0.00" stroke-width="0.3"><path d="
M 884.00 253.00 
C 883.18 252.18 884.74 253.74 884.00 253.00 Z"/>
</g>
<g fill="None" fill-opacity="0.0" stroke="#EE6C0D" stroke-opacity="0.00" stroke-width="0.3"><path d="
M 907.00 257.00 
C 906.18 256.18 907.74 257.74 907.00 257.00 Z"/>
</g>
<g fill="None" fill-opacity="0.0" stroke="#EE6C0D" stroke-opacity="0.00" stroke-width="0.3"><path d="
M 818.00 269.00 
C 817.18 268.18 818.74 269.74 818.00 269.00 Z"/>
</g>
<g fill="None" fill-opacity="0.0" stroke="#EE6C0D" stroke-opacity="0.00" stroke-width="0.3"><path d="
M 890.00 269.00 
C 889.18 268.18 890.74 269.74 890.00 269.00 Z"/>
</g>
<g fill="None" fill-opacity="0.0" stroke="#EE6C0D" stroke-opacity="0.00" stroke-width="0.3"><path d="
M 892.00 269.00 
C 891.18 268.18 892.74 269.74 892.00 269.00 Z"/>
</g>
<g fill="None" fill-opacity="0.0" stroke="#000002" stroke-opacity="0.00" stroke-width="0.3"><path d="
M 660.00 383.00 
C 656.53 387.92 654.96 382.17 648.77 389.77 C 642.58 397.37 635.10 407.12 630.77 415.77 C 626.44 424.42 627.00 422.97 624.00 431.00
C 636.98 432.24 653.45 433.45 653.67 418.67 C 653.89 403.89 660.52 397.35 660.00 383.00 Z"/>
</g>
<g fill="None" fill-opacity="0.0" stroke="#000002" stroke-opacity="0.00" stroke-width="0.3"><path d="
M 706.00 430.00 
C 697.72 413.79 691.36 389.94 672.00 384.00
C 670.69 398.23 677.29 404.46 677.00 419.00 C 676.71 433.53 693.49 430.40 706.00 430.00 Z"/>
</g>
<g fill="None" fill-opacity="0.0" stroke="#000002" stroke-opacity="0.00" stroke-width="0.3"><path d="
M 625.00 393.00 
C 605.74 399.31 591.21 416.12 579.00 432.00
C 587.65 432.38 594.54 431.13 603.00 431.00
C 608.36 417.37 616.35 404.92 625.00 393.00 Z"/>
</g>
<g fill="None" fill-opacity="0.0" stroke="#EE6C0D" stroke-opacity="0.97" stroke-width="0.3"><path d="
M 195.00 642.00 
C 190.40 630.58 186.20 618.70 181.78 607.22 C 177.36 595.75 173.23 584.71 168.78 573.22 C 164.33 561.74 160.44 550.65 155.92 539.08 C 151.41 527.50 147.38 515.96 142.77 504.23 C 138.16 492.50 134.38 482.30 129.92 470.08 C 125.47 457.85 101.05 466.73 91.00 464.00
C 68.48 523.49 46.09 583.09 25.00 643.00
C 38.00 643.00 51.00 643.00 64.00 643.00
C 67.35 630.76 72.66 619.21 76.00 607.00
C 98.00 607.00 120.00 607.00 142.00 607.00
C 142.78 616.06 147.33 620.86 149.08 629.92 C 150.82 638.99 155.62 645.33 166.00 643.00 C 176.38 640.67 185.23 645.48 195.00 642.00
M 110.00 505.00 
C 114.78 529.73 125.65 552.70 132.00 577.00
C 126.00 575.08 114.27 577.77 109.00 576.00 C 103.72 574.24 88.02 580.89 87.36 574.30 C 86.70 567.71 94.21 558.41 95.31 551.31 C 96.40 544.20 101.05 536.35 102.93 528.93 C 104.80 521.51 107.89 512.14 110.00 505.00 Z"/>
</g>
<g fill="None" fill-opacity="0.0" stroke="#EE6C0D" stroke-opacity="0.17" stroke-width="0.3"><path d="
M 544.00 465.00 
C 555.44 462.27 569.86 468.65 581.00 465.00
C 580.14 463.37 567.06 463.41 563.00 464.00 C 558.94 464.59 546.32 461.68 544.00 465.00 Z"/>
</g>
<g fill="None" fill-opacity="0.0" stroke="#000002" stroke-opacity="0.99" stroke-width="0.3"><path d="
M 683.00 509.00 
C 683.00 505.09 685.03 490.12 682.00 488.00
C 672.01 485.65 658.30 487.88 648.00 488.00
C 648.94 494.72 647.23 506.33 647.00 514.00
C 646.41 521.34 647.36 529.13 647.00 537.00
C 624.83 537.01 602.70 536.76 581.00 537.00
C 580.95 528.81 581.73 520.07 581.00 512.00 C 580.27 503.93 582.82 496.20 581.33 488.67 C 579.84 481.14 584.40 471.48 581.00 465.00
C 569.86 468.65 555.44 462.27 544.00 465.00
C 543.92 524.13 544.03 582.57 544.00 642.00
C 556.33 642.00 568.67 642.00 581.00 642.00
C 581.16 616.51 581.59 589.57 581.00 566.00
C 603.25 566.38 625.28 566.38 647.00 566.00
C 647.00 591.33 647.00 616.67 647.00 642.00
C 659.00 642.00 671.00 642.00 683.00 642.00
C 683.00 597.67 683.00 553.33 683.00 509.00 Z"/>
</g>
<g fill="None" fill-opacity="0.0" stroke="#EE6C0D" stroke-opacity="0.07" stroke-width="0.3"><path d="
M 647.00 514.00 
C 647.23 506.33 648.94 494.72 648.00 488.00
C 644.82 488.04 646.57 493.27 646.00 499.00 C 645.44 504.73 646.64 509.18 647.00 514.00 Z"/>
</g>
<g fill="None" fill-opacity="0.0" stroke="#000002" stroke-opacity="0.99" stroke-width="0.3"><path d="
M 869.00 486.00 
C 857.08 487.03 845.83 490.73 834.00 492.00
C 834.10 510.50 833.87 529.56 834.00 548.00 C 834.13 566.44 832.88 575.42 833.61 589.25 C 834.33 603.08 833.89 626.71 834.00 642.00
C 845.33 642.00 856.67 642.00 868.00 642.00
C 868.00 638.00 868.00 634.00 868.00 630.00
C 890.11 653.07 931.41 650.64 951.25 625.25 C 971.08 599.86 971.23 561.86 951.75 536.25 C 932.28 510.64 891.99 506.34 869.00 529.00
C 869.00 514.67 869.00 500.33 869.00 486.00
M 902.00 544.00 
C 941.29 546.96 939.27 619.15 897.00 616.00 C 854.73 612.85 859.76 540.81 902.00 544.00 Z"/>
</g>
<g fill="None" fill-opacity="0.0" stroke="#EE6C0D" stroke-opacity="0.32" stroke-width="0.3"><path d="
M 682.00 488.00 
C 685.03 490.12 683.00 505.09 683.00 509.00
C 683.49 503.98 686.29 489.01 682.00 488.00 Z"/>
</g>
<g fill="None" fill-opacity="0.0" stroke="#000002" stroke-opacity="0.00" stroke-width="0.3"><path d="
M 110.00 505.00 
C 107.89 512.14 104.80 521.51 102.93 528.93 C 101.05 536.35 96.40 544.20 95.31 551.31 C 94.21 558.41 86.70 567.71 87.36 574.30 C 88.02 580.89 103.72 574.24 109.00 576.00 C 114.27 577.77 126.00 575.08 132.00 577.00
C 125.65 552.70 114.78 529.73 110.00 505.00 Z"/>
</g>
<g fill="None" fill-opacity="0.0" stroke="#EE6C0D" stroke-opacity="0.96" stroke-width="0.3"><path d="
M 312.00 589.00 
C 324.28 539.41 273.11 501.21 228.68 516.68 C 184.25 532.15 174.17 589.42 201.08 623.92 C 227.99 658.41 291.49 654.87 309.00 614.00
C 298.73 612.19 290.28 604.56 280.00 603.00
C 265.40 625.56 224.00 616.99 221.00 589.00
C 251.33 589.00 281.67 589.00 312.00 589.00
M 276.00 564.00 
C 259.45 563.83 241.23 564.12 224.00 564.00
C 225.60 536.30 274.83 535.34 276.00 564.00 Z"/>
</g>
<g fill="None" fill-opacity="0.0" stroke="#EE6C0D" stroke-opacity="0.97" stroke-width="0.3"><path d="
M 394.00 514.00 
C 378.36 509.82 363.26 519.25 355.00 532.00
C 355.84 526.65 354.55 520.08 356.00 515.00
C 344.82 516.22 330.79 511.61 321.00 517.00
C 322.83 558.98 322.05 603.07 321.00 642.00
C 332.14 644.30 344.42 642.36 356.00 643.00
C 355.30 622.50 357.23 602.45 357.00 582.00 C 356.77 561.55 371.27 543.90 393.00 549.00
C 394.89 537.71 393.65 525.67 394.00 514.00 Z"/>
</g>
<g fill="None" fill-opacity="0.0" stroke="#EE6C0D" stroke-opacity="0.97" stroke-width="0.3"><path d="
M 469.00 513.00 
C 415.60 507.83 381.08 566.85 403.70 611.31 C 426.31 655.76 490.71 659.90 518.75 618.75 C 546.78 577.59 519.06 517.84 469.00 513.00
M 465.00 544.00 
C 505.32 546.59 504.43 616.49 462.00 615.00 C 419.57 613.51 423.60 541.34 465.00 544.00 Z"/>
</g>
<g fill="None" fill-opacity="0.0" stroke="#000002" stroke-opacity="1.00" stroke-width="0.3"><path d="
M 736.00 515.00 
C 724.67 515.00 713.33 515.00 702.00 515.00
C 705.81 548.75 694.73 593.08 707.08 623.92 C 719.44 654.76 764.35 650.54 783.00 631.00
C 783.00 634.67 783.00 638.33 783.00 642.00
C 794.33 642.00 805.67 642.00 817.00 642.00
C 817.00 599.67 817.00 557.33 817.00 515.00
C 805.67 515.00 794.33 515.00 783.00 515.00
C 781.72 540.58 785.24 573.28 781.78 597.78 C 778.31 622.28 735.70 624.30 736.00 598.00 C 736.30 571.70 735.78 541.64 736.00 515.00 Z"/>
</g>
<g fill="None" fill-opacity="0.0" stroke="#000002" stroke-opacity="0.00" stroke-width="0.3"><path d="
M 276.00 564.00 
C 274.83 535.34 225.60 536.30 224.00 564.00
C 241.23 564.12 259.45 563.83 276.00 564.00 Z"/>
</g>
<g fill="None" fill-opacity="0.0" stroke="#000002" stroke-opacity="0.00" stroke-width="0.3"><path d="
M 465.00 544.00 
C 423.60 541.34 419.57 613.51 462.00 615.00 C 504.43 616.49 505.32 546.59 465.00 544.00 Z"/>
</g>
<g fill="None" fill-opacity="0.0" stroke="#000002" stroke-opacity="0.00" stroke-width="0.3"><path d="
M 902.00 544.00 
C 859.76 540.81 854.73 612.85 897.00 616.00 C 939.27 619.15 941.29 546.96 902.00 544.00 Z"/>
</g>
<g fill="#000002" fill-opacity="0.00" stroke="None">
<path d="
M 0.00 1024.00 
L 1024.00 1024.00
L 1024.00 0.00
L 0.00 0.00
L 0.00 1024.00
M 917.00 224.00 
C 920.07 236.61 922.03 250.33 927.00 262.00
C 935.99 254.53 947.64 249.12 956.00 241.00
C 954.61 247.87 949.26 252.93 944.75 259.75 C 940.23 266.56 932.23 275.20 944.07 275.93 C 955.91 276.66 960.62 279.72 971.00 282.00
C 959.56 284.88 947.28 288.01 935.00 289.00
C 940.25 300.69 951.59 312.07 959.00 323.00
C 946.92 319.44 937.98 309.22 926.00 303.00
C 923.32 315.57 922.16 329.19 918.00 341.00
C 915.77 328.98 912.96 314.85 909.00 303.00
C 905.83 313.08 903.06 322.91 900.07 333.07 C 897.09 343.24 894.69 353.40 891.68 363.68 C 888.67 373.95 885.52 384.48 883.01 395.01 C 880.50 405.54 876.26 414.24 874.07 425.07 C 871.89 435.90 867.25 444.10 865.67 455.67 C 864.09 467.24 851.54 469.13 841.00 471.00
C 835.99 480.46 832.97 487.13 826.08 496.08 C 819.19 505.04 802.00 500.12 790.00 501.00 C 778.00 501.88 762.76 500.55 750.00 501.00 C 737.24 501.45 721.99 500.66 709.00 501.00
C 713.32 503.74 706.10 502.88 704.00 503.00
C 713.10 498.98 694.34 502.73 691.00 500.00
C 693.07 493.89 688.68 485.19 691.00 481.00
C 687.43 482.13 688.45 485.93 684.00 484.00
C 688.37 481.71 678.55 482.44 673.78 481.22 C 669.01 480.00 662.90 482.93 657.92 481.93 C 652.94 480.94 645.67 481.60 640.00 481.00
C 638.48 474.64 636.40 468.43 635.00 462.00
C 648.56 461.48 666.91 462.69 680.00 462.00 C 693.09 461.31 712.34 465.99 719.75 455.75 C 727.16 445.52 732.42 438.93 739.75 429.75 C 747.08 420.57 752.69 412.61 759.75 403.75 C 766.81 394.90 772.18 385.88 779.25 377.25 C 786.32 368.63 791.99 359.45 798.92 350.92 C 805.84 342.39 811.25 332.74 818.75 324.75 C 826.25 316.76 828.37 302.77 840.02 300.02 C 851.68 297.27 866.71 294.56 879.00 293.00
C 866.88 289.61 850.39 294.00 838.00 293.00 C 825.61 292.00 821.48 304.66 814.25 312.25 C 807.02 319.84 801.80 328.14 794.75 335.75 C 787.70 343.36 782.59 352.05 775.75 359.75 C 768.90 367.44 762.50 375.20 756.23 383.23 C 749.96 391.26 742.35 398.41 737.00 407.00
C 725.56 402.25 714.62 396.04 704.00 392.00
C 713.00 402.07 720.98 413.86 730.00 424.00
C 724.91 432.68 719.94 434.50 714.70 443.70 C 709.45 452.89 699.76 451.47 689.00 451.00 C 678.24 450.53 665.31 451.24 654.00 451.00 C 642.69 450.76 629.48 451.18 618.00 451.00
C 616.62 457.97 615.68 465.08 614.00 472.00
C 607.58 468.34 598.03 469.79 591.00 471.00
C 588.45 466.64 599.53 455.21 594.22 451.78 C 588.91 448.35 576.92 452.20 570.00 451.00 C 563.08 449.80 552.28 451.90 545.00 451.00
C 548.57 442.30 553.96 433.53 559.92 425.92 C 565.88 418.30 571.28 411.05 577.77 403.77 C 584.27 396.49 592.46 391.22 600.08 385.08 C 607.71 378.95 617.20 375.34 626.22 371.22 C 635.25 367.11 647.01 366.84 658.00 365.00 C 668.99 363.16 683.98 366.11 694.22 367.78 C 704.46 369.45 713.20 374.06 723.08 376.92 C 732.95 379.79 736.43 364.99 743.25 359.25 C 750.08 353.51 755.61 343.58 761.92 336.92 C 768.22 330.25 774.21 322.33 780.25 315.25 C 786.30 308.18 792.82 301.09 798.75 293.75 C 804.69 286.42 812.08 278.85 817.00 271.00
C 843.67 271.00 870.33 271.00 897.00 271.00
C 891.93 259.94 882.26 250.93 877.00 240.00
C 888.01 246.09 898.20 254.24 909.00 261.00
C 913.06 249.34 912.19 233.92 917.00 224.00
M 913.00 232.00 
C 913.74 232.74 912.18 231.18 913.00 232.00
M 913.00 234.00 
C 913.74 234.74 912.18 233.18 913.00 234.00
M 884.00 253.00 
C 884.74 253.74 883.18 252.18 884.00 253.00
M 907.00 257.00 
C 907.74 257.74 906.18 256.18 907.00 257.00
M 818.00 269.00 
C 818.74 269.74 817.18 268.18 818.00 269.00
M 890.00 269.00 
C 890.74 269.74 889.18 268.18 890.00 269.00
M 892.00 269.00 
C 892.74 269.74 891.18 268.18 892.00 269.00
M 195.00 642.00 
C 185.23 645.48 176.38 640.67 166.00 643.00 C 155.62 645.33 150.82 638.99 149.08 629.92 C 147.33 620.86 142.78 616.06 142.00 607.00
C 120.00 607.00 98.00 607.00 76.00 607.00
C 72.66 619.21 67.35 630.76 64.00 643.00
C 51.00 643.00 38.00 643.00 25.00 643.00
C 46.09 583.09 68.48 523.49 91.00 464.00
C 101.05 466.73 125.47 457.85 129.92 470.08 C 134.38 482.30 138.16 492.50 142.77 504.23 C 147.38 515.96 151.41 527.50 155.92 539.08 C 160.44 550.65 164.33 561.74 168.78 573.22 C 173.23 584.71 177.36 595.75 181.78 607.22 C 186.20 618.70 190.40 630.58 195.00 642.00
M 581.00 465.00 
C 584.40 471.48 579.84 481.14 581.33 488.67 C 582.82 496.20 580.27 503.93 581.00 512.00 C 581.73 520.07 580.95 528.81 581.00 537.00
C 602.70 536.76 624.83 537.01 647.00 537.00
C 647.36 529.13 646.41 521.34 647.00 514.00
C 646.64 509.18 645.44 504.73 646.00 499.00 C 646.57 493.27 644.82 488.04 648.00 488.00
C 658.30 487.88 672.01 485.65 682.00 488.00
C 686.29 489.01 683.49 503.98 683.00 509.00
C 683.00 553.33 683.00 597.67 683.00 642.00
C 671.00 642.00 659.00 642.00 647.00 642.00
C 647.00 616.67 647.00 591.33 647.00 566.00
C 625.28 566.38 603.25 566.38 581.00 566.00
C 581.59 589.57 581.16 616.51 581.00 642.00
C 568.67 642.00 556.33 642.00 544.00 642.00
C 544.03 582.57 543.92 524.13 544.00 465.00
C 546.32 461.68 558.94 464.59 563.00 464.00 C 567.06 463.41 580.14 463.37 581.00 465.00
M 869.00 486.00 
C 869.00 500.33 869.00 514.67 869.00 529.00
C 891.99 506.34 932.28 510.64 951.75 536.25 C 971.23 561.86 971.08 599.86 951.25 625.25 C 931.41 650.64 890.11 653.07 868.00 630.00
C 868.00 634.00 868.00 638.00 868.00 642.00
C 856.67 642.00 845.33 642.00 834.00 642.00
C 833.89 626.71 834.33 603.08 833.61 589.25 C 832.88 575.42 834.13 566.44 834.00 548.00 C 833.87 529.56 834.10 510.50 834.00 492.00
C 845.83 490.73 857.08 487.03 869.00 486.00
M 312.00 589.00 
C 281.67 589.00 251.33 589.00 221.00 589.00
C 224.00 616.99 265.40 625.56 280.00 603.00
C 290.28 604.56 298.73 612.19 309.00 614.00
C 291.49 654.87 227.99 658.41 201.08 623.92 C 174.17 589.42 184.25 532.15 228.68 516.68 C 273.11 501.21 324.28 539.41 312.00 589.00
M 394.00 514.00 
C 393.65 525.67 394.89 537.71 393.00 549.00
C 371.27 543.90 356.77 561.55 357.00 582.00 C 357.23 602.45 355.30 622.50 356.00 643.00
C 344.42 642.36 332.14 644.30 321.00 642.00
C 322.05 603.07 322.83 558.98 321.00 517.00
C 330.79 511.61 344.82 516.22 356.00 515.00
C 354.55 520.08 355.84 526.65 355.00 532.00
C 363.26 519.25 378.36 509.82 394.00 514.00
M 469.00 513.00 
C 519.06 517.84 546.78 577.59 518.75 618.75 C 490.71 659.90 426.31 655.76 403.70 611.31 C 381.08 566.85 415.60 507.83 469.00 513.00
M 736.00 515.00 
C 735.78 541.64 736.30 571.70 736.00 598.00 C 735.70 624.30 778.31 622.28 781.78 597.78 C 785.24 573.28 781.72 540.58 783.00 515.00
C 794.33 515.00 805.67 515.00 817.00 515.00
C 817.00 557.33 817.00 599.67 817.00 642.00
C 805.67 642.00 794.33 642.00 783.00 642.00
C 783.00 638.33 783.00 634.67 783.00 631.00
C 764.35 650.54 719.44 654.76 707.08 623.92 C 694.73 593.08 705.81 548.75 702.00 515.00
C 713.33 515.00 724.67 515.00 736.00 515.00 Z"/>
</g>
<g fill="#EE6C0D" fill-opacity="0.97" stroke="None">
<path d="
M 917.00 224.00 
C 912.19 233.92 913.06 249.34 909.00 261.00
C 898.20 254.24 888.01 246.09 877.00 240.00
C 882.26 250.93 891.93 259.94 897.00 271.00
C 870.33 271.00 843.67 271.00 817.00 271.00
C 812.08 278.85 804.69 286.42 798.75 293.75 C 792.82 301.09 786.30 308.18 780.25 315.25 C 774.21 322.33 768.22 330.25 761.92 336.92 C 755.61 343.58 750.08 353.51 743.25 359.25 C 736.43 364.99 732.95 379.79 723.08 376.92 C 713.20 374.06 704.46 369.45 694.22 367.78 C 683.98 366.11 668.99 363.16 658.00 365.00 C 647.01 366.84 635.25 367.11 626.22 371.22 C 617.20 375.34 607.71 378.95 600.08 385.08 C 592.46 391.22 584.27 396.49 577.77 403.77 C 571.28 411.05 565.88 418.30 559.92 425.92 C 553.96 433.53 548.57 442.30 545.00 451.00
C 552.28 451.90 563.08 449.80 570.00 451.00 C 576.92 452.20 588.91 448.35 594.22 451.78 C 599.53 455.21 588.45 466.64 591.00 471.00
C 598.03 469.79 607.58 468.34 614.00 472.00
C 615.68 465.08 616.62 457.97 618.00 451.00
C 629.48 451.18 642.69 450.76 654.00 451.00 C 665.31 451.24 678.24 450.53 689.00 451.00 C 699.76 451.47 709.45 452.89 714.70 443.70 C 719.94 434.50 724.91 432.68 730.00 424.00
C 720.98 413.86 713.00 402.07 704.00 392.00
C 714.62 396.04 725.56 402.25 737.00 407.00
C 742.35 398.41 749.96 391.26 756.23 383.23 C 762.50 375.20 768.90 367.44 775.75 359.75 C 782.59 352.05 787.70 343.36 794.75 335.75 C 801.80 328.14 807.02 319.84 814.25 312.25 C 821.48 304.66 825.61 292.00 838.00 293.00 C 850.39 294.00 866.88 289.61 879.00 293.00
C 866.71 294.56 851.68 297.27 840.02 300.02 C 828.37 302.77 826.25 316.76 818.75 324.75 C 811.25 332.74 805.84 342.39 798.92 350.92 C 791.99 359.45 786.32 368.63 779.25 377.25 C 772.18 385.88 766.81 394.90 759.75 403.75 C 752.69 412.61 747.08 420.57 739.75 429.75 C 732.42 438.93 727.16 445.52 719.75 455.75 C 712.34 465.99 693.09 461.31 680.00 462.00 C 666.91 462.69 648.56 461.48 635.00 462.00
C 636.40 468.43 638.48 474.64 640.00 481.00
C 645.67 481.60 652.94 480.94 657.92 481.93 C 662.90 482.93 669.01 480.00 673.78 481.22 C 678.55 482.44 688.37 481.71 684.00 484.00
C 688.45 485.93 687.43 482.13 691.00 481.00
C 688.68 485.19 693.07 493.89 691.00 500.00
C 694.34 502.73 713.10 498.98 704.00 503.00
C 706.10 502.88 713.32 503.74 709.00 501.00
C 721.99 500.66 737.24 501.45 750.00 501.00 C 762.76 500.55 778.00 501.88 790.00 501.00 C 802.00 500.12 819.19 505.04 826.08 496.08 C 832.97 487.13 835.99 480.46 841.00 471.00
C 851.54 469.13 864.09 467.24 865.67 455.67 C 867.25 444.10 871.89 435.90 874.07 425.07 C 876.26 414.24 880.50 405.54 883.01 395.01 C 885.52 384.48 888.67 373.95 891.68 363.68 C 894.69 353.40 897.09 343.24 900.07 333.07 C 903.06 322.91 905.83 313.08 909.00 303.00
C 912.96 314.85 915.77 328.98 918.00 341.00
C 922.16 329.19 923.32 315.57 926.00 303.00
C 937.98 309.22 946.92 319.44 959.00 323.00
C 951.59 312.07 940.25 300.69 935.00 289.00
C 947.28 288.01 959.56 284.88 971.00 282.00
C 960.62 279.72 955.91 276.66 944.07 275.93 C 932.23 275.20 940.23 266.56 944.75 259.75 C 949.26 252.93 954.61 247.87 956.00 241.00
C 947.64 249.12 935.99 254.53 927.00 262.00
C 922.03 250.33 920.07 236.61 917.00 224.00
M 660.00 383.00 
C 660.52 397.35 653.89 403.89 653.67 418.67 C 653.45 433.45 636.98 432.24 624.00 431.00
C 627.00 422.97 626.44 424.42 630.77 415.77 C 635.10 407.12 642.58 397.37 648.77 389.77 C 654.96 382.17 656.53 387.92 660.00 383.00
M 706.00 430.00 
C 693.49 430.40 676.71 433.53 677.00 419.00 C 677.29 404.46 670.69 398.23 672.00 384.00
C 691.36 389.94 697.72 413.79 706.00 430.00
M 625.00 393.00 
C 616.35 404.92 608.36 417.37 603.00 431.00
C 594.54 431.13 587.65 432.38 579.00 432.00
C 591.21 416.12 605.74 399.31 625.00 393.00 Z"/>
</g>
<g fill="#EE6C0D" fill-opacity="0.00" stroke="None">
<path d="
M 913.00 232.00 
C 912.18 231.18 913.74 232.74 913.00 232.00 Z"/>
</g>
<g fill="#EE6C0D" fill-opacity="0.00" stroke="None">
<path d="
M 913.00 234.00 
C 912.18 233.18 913.74 234.74 913.00 234.00 Z"/>
</g>
<g fill="#EE6C0D" fill-opacity="0.00" stroke="None">
<path d="
M 884.00 253.00 
C 883.18 252.18 884.74 253.74 884.00 253.00 Z"/>
</g>
<g fill="#EE6C0D" fill-opacity="0.00" stroke="None">
<path d="
M 907.00 257.00 
C 906.18 256.18 907.74 257.74 907.00 257.00 Z"/>
</g>
<g fill="#EE6C0D" fill-opacity="0.00" stroke="None">
<path d="
M 818.00 269.00 
C 817.18 268.18 818.74 269.74 818.00 269.00 Z"/>
</g>
<g fill="#EE6C0D" fill-opacity="0.00" stroke="None">
<path d="
M 890.00 269.00 
C 889.18 268.18 890.74 269.74 890.00 269.00 Z"/>
</g>
<g fill="#EE6C0D" fill-opacity="0.00" stroke="None">
<path d="
M 892.00 269.00 
C 891.18 268.18 892.74 269.74 892.00 269.00 Z"/>
</g>
<g fill="#000002" fill-opacity="0.00" stroke="None">
<path d="
M 660.00 383.00 
C 656.53 387.92 654.96 382.17 648.77 389.77 C 642.58 397.37 635.10 407.12 630.77 415.77 C 626.44 424.42 627.00 422.97 624.00 431.00
C 636.98 432.24 653.45 433.45 653.67 418.67 C 653.89 403.89 660.52 397.35 660.00 383.00 Z"/>
</g>
<g fill="#000002" fill-opacity="0.00" stroke="None">
<path d="
M 706.00 430.00 
C 697.72 413.79 691.36 389.94 672.00 384.00
C 670.69 398.23 677.29 404.46 677.00 419.00 C 676.71 433.53 693.49 430.40 706.00 430.00 Z"/>
</g>
<g fill="#000002" fill-opacity="0.00" stroke="None">
<path d="
M 625.00 393.00 
C 605.74 399.31 591.21 416.12 579.00 432.00
C 587.65 432.38 594.54 431.13 603.00 431.00
C 608.36 417.37 616.35 404.92 625.00 393.00 Z"/>
</g>
<g fill="#EE6C0D" fill-opacity="0.97" stroke="None">
<path d="
M 195.00 642.00 
C 190.40 630.58 186.20 618.70 181.78 607.22 C 177.36 595.75 173.23 584.71 168.78 573.22 C 164.33 561.74 160.44 550.65 155.92 539.08 C 151.41 527.50 147.38 515.96 142.77 504.23 C 138.16 492.50 134.38 482.30 129.92 470.08 C 125.47 457.85 101.05 466.73 91.00 464.00
C 68.48 523.49 46.09 583.09 25.00 643.00
C 38.00 643.00 51.00 643.00 64.00 643.00
C 67.35 630.76 72.66 619.21 76.00 607.00
C 98.00 607.00 120.00 607.00 142.00 607.00
C 142.78 616.06 147.33 620.86 149.08 629.92 C 150.82 638.99 155.62 645.33 166.00 643.00 C 176.38 640.67 185.23 645.48 195.00 642.00
M 110.00 505.00 
C 114.78 529.73 125.65 552.70 132.00 577.00
C 126.00 575.08 114.27 577.77 109.00 576.00 C 103.72 574.24 88.02 580.89 87.36 574.30 C 86.70 567.71 94.21 558.41 95.31 551.31 C 96.40 544.20 101.05 536.35 102.93 528.93 C 104.80 521.51 107.89 512.14 110.00 505.00 Z"/>
</g>
<g fill="#EE6C0D" fill-opacity="0.17" stroke="None">
<path d="
M 544.00 465.00 
C 555.44 462.27 569.86 468.65 581.00 465.00
C 580.14 463.37 567.06 463.41 563.00 464.00 C 558.94 464.59 546.32 461.68 544.00 465.00 Z"/>
</g>
<g fill="#000002" fill-opacity="0.99" stroke="None">
<path d="
M 683.00 509.00 
C 683.00 505.09 685.03 490.12 682.00 488.00
C 672.01 485.65 658.30 487.88 648.00 488.00
C 648.94 494.72 647.23 506.33 647.00 514.00
C 646.41 521.34 647.36 529.13 647.00 537.00
C 624.83 537.01 602.70 536.76 581.00 537.00
C 580.95 528.81 581.73 520.07 581.00 512.00 C 580.27 503.93 582.82 496.20 581.33 488.67 C 579.84 481.14 584.40 471.48 581.00 465.00
C 569.86 468.65 555.44 462.27 544.00 465.00
C 543.92 524.13 544.03 582.57 544.00 642.00
C 556.33 642.00 568.67 642.00 581.00 642.00
C 581.16 616.51 581.59 589.57 581.00 566.00
C 603.25 566.38 625.28 566.38 647.00 566.00
C 647.00 591.33 647.00 616.67 647.00 642.00
C 659.00 642.00 671.00 642.00 683.00 642.00
C 683.00 597.67 683.00 553.33 683.00 509.00 Z"/>
</g>
<g fill="#EE6C0D" fill-opacity="0.07" stroke="None">
<path d="
M 647.00 514.00 
C 647.23 506.33 648.94 494.72 648.00 488.00
C 644.82 488.04 646.57 493.27 646.00 499.00 C 645.44 504.73 646.64 509.18 647.00 514.00 Z"/>
</g>
<g fill="#000002" fill-opacity="0.99" stroke="None">
<path d="
M 869.00 486.00 
C 857.08 487.03 845.83 490.73 834.00 492.00
C 834.10 510.50 833.87 529.56 834.00 548.00 C 834.13 566.44 832.88 575.42 833.61 589.25 C 834.33 603.08 833.89 626.71 834.00 642.00
C 845.33 642.00 856.67 642.00 868.00 642.00
C 868.00 638.00 868.00 634.00 868.00 630.00
C 890.11 653.07 931.41 650.64 951.25 625.25 C 971.08 599.86 971.23 561.86 951.75 536.25 C 932.28 510.64 891.99 506.34 869.00 529.00
C 869.00 514.67 869.00 500.33 869.00 486.00
M 902.00 544.00 
C 941.29 546.96 939.27 619.15 897.00 616.00 C 854.73 612.85 859.76 540.81 902.00 544.00 Z"/>
</g>
<g fill="#EE6C0D" fill-opacity="0.32" stroke="None">
<path d="
M 682.00 488.00 
C 685.03 490.12 683.00 505.09 683.00 509.00
C 683.49 503.98 686.29 489.01 682.00 488.00 Z"/>
</g>
<g fill="#000002" fill-opacity="0.00" stroke="None">
<path d="
M 110.00 505.00 
C 107.89 512.14 104.80 521.51 102.93 528.93 C 101.05 536.35 96.40 544.20 95.31 551.31 C 94.21 558.41 86.70 567.71 87.36 574.30 C 88.02 580.89 103.72 574.24 109.00 576.00 C 114.27 577.77 126.00 575.08 132.00 577.00
C 125.65 552.70 114.78 529.73 110.00 505.00 Z"/>
</g>
<g fill="#EE6C0D" fill-opacity="0.96" stroke="None">
<path d="
M 312.00 589.00 
C 324.28 539.41 273.11 501.21 228.68 516.68 C 184.25 532.15 174.17 589.42 201.08 623.92 C 227.99 658.41 291.49 654.87 309.00 614.00
C 298.73 612.19 290.28 604.56 280.00 603.00
C 265.40 625.56 224.00 616.99 221.00 589.00
C 251.33 589.00 281.67 589.00 312.00 589.00
M 276.00 564.00 
C 259.45 563.83 241.23 564.12 224.00 564.00
C 225.60 536.30 274.83 535.34 276.00 564.00 Z"/>
</g>
<g fill="#EE6C0D" fill-opacity="0.97" stroke="None">
<path d="
M 394.00 514.00 
C 378.36 509.82 363.26 519.25 355.00 532.00
C 355.84 526.65 354.55 520.08 356.00 515.00
C 344.82 516.22 330.79 511.61 321.00 517.00
C 322.83 558.98 322.05 603.07 321.00 642.00
C 332.14 644.30 344.42 642.36 356.00 643.00
C 355.30 622.50 357.23 602.45 357.00 582.00 C 356.77 561.55 371.27 543.90 393.00 549.00
C 394.89 537.71 393.65 525.67 394.00 514.00 Z"/>
</g>
<g fill="#EE6C0D" fill-opacity="0.97" stroke="None">
<path d="
M 469.00 513.00 
C 415.60 507.83 381.08 566.85 403.70 611.31 C 426.31 655.76 490.71 659.90 518.75 618.75 C 546.78 577.59 519.06 517.84 469.00 513.00
M 465.00 544.00 
C 505.32 546.59 504.43 616.49 462.00 615.00 C 419.57 613.51 423.60 541.34 465.00 544.00 Z"/>
</g>
<g fill="#000002" fill-opacity="1.00" stroke="None">
<path d="
M 736.00 515.00 
C 724.67 515.00 713.33 515.00 702.00 515.00
C 705.81 548.75 694.73 593.08 707.08 623.92 C 719.44 654.76 764.35 650.54 783.00 631.00
C 783.00 634.67 783.00 638.33 783.00 642.00
C 794.33 642.00 805.67 642.00 817.00 642.00
C 817.00 599.67 817.00 557.33 817.00 515.00
C 805.67 515.00 794.33 515.00 783.00 515.00
C 781.72 540.58 785.24 573.28 781.78 597.78 C 778.31 622.28 735.70 624.30 736.00 598.00 C 736.30 571.70 735.78 541.64 736.00 515.00 Z"/>
</g>
<g fill="#000002" fill-opacity="0.00" stroke="None">
<path d="
M 276.00 564.00 
C 274.83 535.34 225.60 536.30 224.00 564.00
C 241.23 564.12 259.45 563.83 276.00 564.00 Z"/>
</g>
<g fill="#000002" fill-opacity="0.00" stroke="None">
<path d="
M 465.00 544.00 
C 423.60 541.34 419.57 613.51 462.00 615.00 C 504.43 616.49 505.32 546.59 465.00 544.00 Z"/>
</g>
<g fill="#000002" fill-opacity="0.00" stroke="None">
<path d="
M 902.00 544.00 
C 859.76 540.81 854.73 612.85 897.00 616.00 C 939.27 619.15 941.29 546.96 902.00 544.00 Z"/>
</g>
</svg>